<svg xmlns="http://www.w3.org/2000/svg" viewBox="0 0 512 512" role="img" aria-label="Scrap Auction India">
  <rect width="512" height="512" fill="#f5f5f7"/>
  <circle cx="256" cy="256" r="172" fill="#111827"/>
  <path d="M144 310h224c13 0 24 11 24 24s-11 24-24 24H144c-13 0-24-11-24-24s11-24 24-24Z" fill="#ffffff"/>
  <path d="M181 228h146c13 0 24 11 24 24s-11 24-24 24H181c-13 0-24-11-24-24s11-24 24-24Z" fill="#ffffff"/>
  <path d="M214 150h84c13 0 24 11 24 24s-11 24-24 24h-84c-13 0-24-11-24-24s11-24 24-24Z" fill="#ffffff"/>
  <path d="M371 160c0-12 10-22 22-22s22 10 22 22v192c0 12-10 22-22 22s-22-10-22-22V160Z" fill="#0ea5e9"/>
</svg>
