<svg xmlns="http://www.w3.org/2000/svg" viewBox="0 0 512 512" role="img" aria-label="Scrap Auction India">
  <rect width="512" height="512" rx="112" fill="#f5f5f7"/>
  <circle cx="256" cy="256" r="178" fill="#111827"/>
  <path d="M155 303h202c14 0 25 11 25 25s-11 25-25 25H155c-14 0-25-11-25-25s11-25 25-25Z" fill="#f5f5f7"/>
  <path d="M190 226h132c13 0 24 11 24 24s-11 24-24 24H190c-13 0-24-11-24-24s11-24 24-24Z" fill="#f5f5f7"/>
  <path d="M218 149h76c13 0 24 11 24 24s-11 24-24 24h-76c-13 0-24-11-24-24s11-24 24-24Z" fill="#f5f5f7"/>
  <path d="M370 165c0-12 10-22 22-22s22 10 22 22v182c0 12-10 22-22 22s-22-10-22-22V165Z" fill="#0ea5e9"/>
</svg>
